<svg width="1200" height="800" xmlns="http://www.w3.org/2000/svg">
  <defs>
    <linearGradient id="grad3" x1="0%" y1="0%" x2="100%" y2="100%">
      <stop offset="0%" style="stop-color:#FFEADB;stop-opacity:1" />
      <stop offset="100%" style="stop-color:#FBEED7;stop-opacity:1" />
    </linearGradient>
  </defs>
  <rect width="1200" height="800" fill="url(#grad3)"/>
  <rect x="100" y="100" width="1000" height="600" fill="white" rx="30" stroke="#FF8C42" stroke-width="4"/>
  <circle cx="600" cy="350" r="120" fill="#FF8C42" opacity="0.15"/>
  <circle cx="600" cy="350" r="80" fill="#ffb46b" opacity="0.2"/>
  <path d="M 550 300 Q 600 280 650 300 Q 600 320 550 300" fill="#FF8C42" opacity="0.3"/>
  <path d="M 550 400 Q 600 420 650 400 Q 600 380 550 400" fill="#ffb46b" opacity="0.3"/>
  <ellipse cx="600" cy="350" rx="100" ry="60" fill="#FF8C42" opacity="0.1"/>
  <path d="M 520 320 L 600 340 L 680 320" stroke="#FF8C42" stroke-width="4" fill="none" stroke-linecap="round"/>
  <path d="M 520 380 L 600 360 L 680 380" stroke="#ffb46b" stroke-width="4" fill="none" stroke-linecap="round"/>
  <text x="600" y="520" font-family="Arial, sans-serif" font-size="36" font-weight="bold" fill="#FF8C42" text-anchor="middle">AI Voice Assistant</text>
  <text x="600" y="570" font-family="Arial, sans-serif" font-size="24" fill="#5F5F5F" text-anchor="middle">Hands-Free Home Cooking</text>
  <circle cx="550" cy="300" r="8" fill="#FF8C42" opacity="0.6"/>
  <circle cx="650" cy="300" r="8" fill="#FF8C42" opacity="0.6"/>
  <circle cx="550" cy="400" r="8" fill="#ffb46b" opacity="0.6"/>
  <circle cx="650" cy="400" r="8" fill="#ffb46b" opacity="0.6"/>
</svg>




